<svg preserveAspectRatio="xMidYMid meet" width="100%" height="100%" overflow="visible" style="display: block;" viewBox="0 0 48 48" fill="none" xmlns="http://www.w3.org/2000/svg">
<g id="alchemy 1" clip-path="url(#clip0_0_161)">
<path id="Vector" d="M24.0121 3.52736C23.8618 3.52638 23.7138 3.56406 23.5823 3.63676C23.4532 3.70911 23.3455 3.81417 23.2699 3.94136L18.7229 11.6684C18.5744 11.9205 18.4962 12.2078 18.4963 12.5004C18.4963 12.7924 18.5739 13.0796 18.7229 13.3324L28.6253 30.157C28.7766 30.4114 28.9922 30.6215 29.2503 30.7664C29.5089 30.9127 29.801 30.9894 30.0981 30.989H39.1959C39.3452 30.9883 39.4918 30.9493 39.6217 30.8758C39.7496 30.803 39.856 30.6979 39.9303 30.571C40.0055 30.4458 40.0459 30.3029 40.0475 30.157C40.0473 30.0101 40.0081 29.8658 39.9341 29.739L24.7425 3.94936C24.6684 3.82226 24.5619 3.71709 24.4339 3.64456C24.3058 3.56953 24.1606 3.52914 24.0121 3.52736ZM16.0393 17.012C15.8912 17.0125 15.7458 17.0515 15.6173 17.1252C15.4883 17.1977 15.3806 17.3028 15.3049 17.43L0.117104 43.2194C0.0411711 43.3454 0.000713459 43.4897 9.35001e-06 43.6368C-0.000694759 43.784 0.0383809 43.9286 0.113104 44.0554C0.188527 44.1828 0.296391 44.288 0.425704 44.3602C0.555704 44.4332 0.701704 44.4742 0.851504 44.4734H9.9533C10.2503 44.4737 10.5424 44.397 10.8009 44.2508C11.0579 44.1058 11.2721 43.8956 11.4219 43.6414L21.3283 26.8168C21.4768 26.5646 21.555 26.2774 21.5549 25.9848C21.555 25.6909 21.4768 25.4023 21.3283 25.1488L16.7775 17.43C16.7018 17.3028 16.5941 17.1977 16.4651 17.1252C16.3352 17.0515 16.1887 17.0125 16.0393 17.012ZM22.0627 34.6608C21.7644 34.6603 21.471 34.7369 21.2111 34.8834C20.9541 35.0283 20.7399 35.2385 20.5901 35.4928L16.0393 43.2156C15.9649 43.3423 15.9258 43.4866 15.9259 43.6336C15.9259 43.7792 15.965 43.9222 16.0393 44.0476C16.1134 44.1757 16.2198 44.2821 16.3479 44.3562C16.478 44.4287 16.6247 44.4664 16.7737 44.4656H47.1531C47.3021 44.4664 47.4488 44.4287 47.5789 44.3562C47.707 44.2821 47.8135 44.1757 47.8875 44.0476C47.9617 43.9222 48.0008 43.7792 48.0007 43.6336C48.0009 43.4866 47.9618 43.3423 47.8875 43.2156L43.3403 35.4928C43.1905 35.2385 42.9762 35.0283 42.7191 34.8834C42.4606 34.737 42.1686 34.6603 41.8715 34.6608H22.0627Z" fill="var(--fill-0, #111827)"/>
</g>
<defs>
<clipPath id="clip0_0_161">
<rect width="48" height="48" fill="#111827"/>
</clipPath>
</defs>
</svg>
