<svg xmlns="http://www.w3.org/2000/svg" width="1584" height="381"><path fill-rule="evenodd" d="M184.59 240.05c0-20.75 6.71-36.37 20.14-46.87 13.43-10.49 33.19-15.76 59.3-15.76h40.28v-16.5c0-16.12-3.46-27.59-10.36-34.36-6.91-6.79-17.13-10.18-30.7-10.18-9.46 0-19.19 1.28-29.17 3.83-9.97 2.56-19.06 5.76-27.24 9.61l-9.59-22.67c10.21-5.89 21.17-10.43 32.81-13.63 11.63-3.19 22.96-4.8 33.97-4.8 24.04 0 41.95 5.89 53.71 17.67 11.77 11.77 17.65 30.48 17.65 56.07V294.6h-23.77l-3.84-22.29c-9.99 8.19-20.94 14.46-32.81 18.83-11.91 4.33-22.98 6.51-33.21 6.51-17.91 0-31.91-5.06-42.02-15.17-10.12-10.1-15.15-24.25-15.15-42.43m62.93 31.5c4.6 0 9.52-.59 14.78-1.73a100 100 0 0 0 15.54-4.82c5.12-2.04 9.97-4.47 14.59-7.29q6.9-4.23 11.88-9.21v-48.41h-36.08c-18.41 0-31.84 3.16-40.28 9.43-8.44 6.26-12.67 15.93-12.67 28.99 0 10.75 2.75 18.94 8.26 24.59 5.5 5.63 13.49 8.43 23.98 8.43zM520.03 86.42l-.01.01-.01-.01zm25.32 18.82-66.38 82.96 76.74 91.78-25.33 19.99-89.41-110.23 79.05-103.31zM394.54 294.58V7.29L426.78 0v294.58zm204.71-101.4c13.43-10.49 33.19-15.76 59.28-15.76h40.31v-16.5c0-16.12-3.46-27.59-10.37-34.36-6.9-6.79-17.13-10.18-30.7-10.18-9.46 0-19.19 1.28-29.15 3.83-9.99 2.56-19.07 5.76-27.26 9.61l-9.59-22.67c10.21-5.89 21.17-10.43 32.81-13.63 11.65-3.19 22.97-4.8 33.95-4.8q36.09 0 53.73 17.67c11.77 11.77 17.65 30.48 17.65 56.07V294.6h-23.79l-3.82-22.29c-9.99 8.19-20.92 14.46-32.81 18.83-11.91 4.33-22.98 6.51-33.21 6.51-17.91 0-31.93-5.06-42.01-15.17-10.11-10.1-15.16-24.25-15.16-42.43 0-20.75 6.71-36.37 20.14-46.87m42.81 78.37c4.6 0 9.52-.59 14.78-1.73a100 100 0 0 0 15.54-4.82c5.12-2.04 9.97-4.47 14.59-7.29q6.9-4.23 11.88-9.21v-48.41h-36.08c-18.43 0-31.85 3.16-40.32 9.43-8.42 6.26-12.63 15.93-12.63 28.99 0 10.75 2.74 18.94 8.24 24.59 5.5 5.63 13.5 8.43 23.98 8.43zm285.4-155.76c15.87 18.06 23.79 44.13 23.79 78.17 0 33.79-7.87 59.66-23.6 77.59-15.75 17.91-37.79 26.88-66.19 26.88-28.15 0-50.15-8.97-66.01-26.88-15.87-17.93-23.8-43.8-23.8-77.59 0-34.04 8-60.11 23.99-78.17 15.99-18.05 37.93-27.07 65.82-27.07 28.14 0 50.13 9.02 66 27.07m-107.63 19.6c-9.87 13.44-14.78 32.96-14.78 58.57 0 25.6 4.91 45 14.78 58.19 9.83 13.18 23.71 19.78 41.63 19.78 17.9 0 31.79-6.58 41.64-19.79 9.84-13.17 14.77-32.56 14.77-58.19 0-25.6-4.93-45.12-14.77-58.56-9.87-13.45-23.74-20.17-41.64-20.17-17.91 0-31.8 6.72-41.63 20.17m257.43 164.96c-5.36 0-10.55-.26-15.53-.78-4.99-.52-10.68-1.66-17.08-3.46v76.44h-51.43V92.17h36.46l6.14 16.9c6.65-6.65 14.52-12.16 23.6-16.5 9.07-4.37 20.53-6.53 34.35-6.53 13.29 0 24.75 2.37 34.35 7.1 9.59 4.74 17.51 11.6 23.8 20.55 6.26 8.96 10.93 19.83 14.01 32.65 3.05 12.81 4.59 27.26 4.59 43.4 0 16.9-2.3 32.12-6.91 45.7-4.6 13.58-11 25.15-19.19 34.76-8.18 9.59-17.98 17.02-29.35 22.27-11.4 5.25-24 7.88-37.81 7.88m-17.46-170.72q-8.64 2.1-15.15 5.19V260.4c1.78.52 4.41.84 7.85.97 3.46.12 6.98.17 10.56.17 20.21 0 34.47-6.44 42.79-19.4 8.31-12.92 12.48-30.39 12.48-52.4q0-14.22-1.92-25.74c-1.28-7.69-3.52-14.2-6.72-19.58-3.2-5.37-7.47-9.53-12.85-12.47-5.37-2.96-12.29-4.44-20.73-4.44-5.11 0-10.56.7-16.31 2.12m157.68 58c14.19-10.88 35.13-16.34 62.75-16.34h32.24v-6.92c0-5.61-.52-10.6-1.54-14.97-1.03-4.34-2.95-8-5.75-10.94-2.82-2.95-6.59-5.2-11.33-6.72-4.73-1.54-10.94-2.3-18.61-2.3-9.46 0-18.62 1.02-27.44 3.06-8.83 2.06-17.84 5.51-27.06 10.39l-14.19-35.34c9.72-6.67 21.28-11.92 34.73-15.76 13.42-3.83 26.8-5.75 40.11-5.75 26.09 0 45.78 6.4 59.09 19.2 13.29 12.82 19.95 32.39 19.95 58.76v130.58h-36.08l-5.74-17.28c-10.51 8.19-21.06 14.03-31.67 17.49-10.62 3.45-20.4 5.16-29.35 5.16-19.97 0-35.18-5.56-45.68-16.69-10.49-11.14-15.73-26.83-15.73-47.06q0-32.265 21.3-48.57m75.99 67.4c8.06-3.33 14.39-7.05 19-11.14v-39.57h-27.64c-28.14 0-42.22 10.51-42.22 31.5 0 7.43 2.11 13.32 6.35 17.67 4.2 4.36 10.55 6.53 18.98 6.53 8.97 0 17.48-1.67 25.53-4.99m195.43 83.54c-12.03 17.79-26.09 31.94-42.22 42.43l-31.84-29.18c10.99-9.49 20.07-18.45 27.24-26.9 7.16-8.45 13.68-18.18 19.57-29.18l-71.38-197.03 51.04-13.83 46.05 159.39 45.68-159.77 50.64 14.59-62.94 174.36c-9.21 25.62-19.81 47.32-31.84 65.12M32.22 0h-.02zm-.02 0v294.58H.02V7.27zm93.29 86.42 25.33 18.81-66.37 82.95 76.74 91.79-25.33 19.98-89.43-110.21z"/></svg>