<svg preserveAspectRatio="xMidYMid meet" width="100%" height="100%" overflow="visible" style="display: block;" viewBox="0 0 48 47.0042" fill="none" xmlns="http://www.w3.org/2000/svg">
<g id="nansen 1">
<path id="Vector" d="M45.1798 24.8683C42.9789 23.4223 40.573 22.1496 37.9638 21.0482C36.8943 20.608 36.1474 20.0025 35.7232 19.2318C35.2989 18.461 35.1954 17.495 35.4165 16.3318C36.1076 12.936 36.3287 9.68155 36.0757 6.56852C35.8228 3.45549 34.6616 1.52155 32.5862 0.768685L31.8314 0.485864C29.6306 -0.330734 27.4616 0.0456966 25.3225 1.61715C23.1834 3.19059 21.2734 5.29582 19.5924 7.93682C18.1683 10.1735 16.8976 12.4779 15.7763 14.85C14.88 14.6907 14.0356 14.5552 13.2488 14.4437C9.50642 13.9717 6.55273 13.9338 4.38177 14.3262C2.21281 14.7206 0.96999 15.5133 0.655301 16.7083L0.27887 18.0766C-0.0358187 19.178 0.529824 20.3949 1.9758 21.7313C3.42177 23.0678 4.94742 24.207 6.55074 25.1511C8.15406 26.125 9.26941 27.2822 9.89879 28.6167C10.5282 29.9531 10.7632 31.6739 10.6058 33.7811C10.3848 36.6113 10.5899 39.2444 11.2193 41.6802C11.8487 44.1161 13.1692 45.6656 15.1808 46.3249L16.3121 46.7013C18.1046 47.2988 19.9828 46.7411 21.9486 45.0263C23.9124 43.3114 25.8404 40.774 27.7265 37.41C28.4754 36.0995 29.2243 34.6216 29.9751 32.9785C31.6442 33.2334 33.2634 33.4167 34.8249 33.5182C38.4558 33.7533 41.3955 33.6118 43.6442 33.094C45.8908 32.5762 47.1735 31.7815 47.4882 30.7119L47.9124 29.1564C48.2888 27.7423 47.3766 26.3103 45.1778 24.8643L45.1798 24.8683ZM24.5238 8.24354C26.4737 5.14644 28.5331 3.30014 30.7021 2.70263C32.2736 3.14279 33.1858 4.66047 33.4367 7.25366C33.6877 9.84686 33.5941 12.464 33.1539 15.1069C32.9328 16.3657 32.4229 17.2221 31.6203 17.6762C30.8176 18.1323 29.7879 18.1881 28.5311 17.8415C25.8384 17.0688 23.1536 16.3876 20.4767 15.7961C21.6658 13.1611 23.0121 10.6435 24.5238 8.24553V8.24354ZM24.0996 27.085C21.8052 26.4875 20.2397 25.3961 19.4072 23.8067C18.5746 22.2193 18.5965 20.3252 19.4789 18.1244C19.4928 18.0925 19.5068 18.0606 19.5187 18.0268C19.5605 18.0367 19.6004 18.0447 19.6422 18.0527C22.4565 18.6661 25.2787 19.3971 28.1069 20.2455C29.3019 20.5921 30.1185 21.1816 30.5587 22.0142C30.9989 22.8467 31.0148 23.8465 30.6065 25.0097C30.2241 26.139 29.8158 27.2324 29.3856 28.3C27.6249 27.9395 25.8623 27.5371 24.0976 27.085H24.0996ZM11.1775 20.7893C9.48053 21.5282 7.67206 21.2055 5.75406 19.8233C4.78011 19.162 3.96153 18.4251 3.30227 17.6065C5.25215 16.7262 8.33331 16.4752 12.5458 16.8517C13.219 16.9174 13.9499 17.011 14.7326 17.1305C13.8105 18.939 12.6274 20.1599 11.1795 20.7893H11.1775ZM25.7507 35.7629C24.1155 38.5612 22.4485 40.7302 20.7516 42.2718C19.0546 43.8113 17.5449 44.5045 16.2244 44.3471C15.3122 43.0585 14.7864 41.5169 14.645 39.7244C14.5036 37.9318 14.5892 36.0457 14.9039 34.0659C15.123 32.62 15.9416 31.6918 17.3557 31.2835C18.7698 30.8752 20.6719 30.9688 23.0619 31.5664C24.5716 31.9488 26.0415 32.2774 27.4755 32.5523C26.8999 33.7114 26.3263 34.7849 25.7507 35.7629ZM35.8666 29.4193C34.4943 29.2261 33.122 29.005 31.7477 28.7561C32.1063 27.82 32.4508 26.8719 32.7775 25.9059C33.2176 24.6791 33.8629 23.8704 34.7114 23.4781C35.5599 23.0857 36.5497 23.1415 37.683 23.6434C42.0209 25.5614 44.5046 27.3539 45.134 29.019C42.8694 29.8376 39.7803 29.971 35.8666 29.4193Z" fill="var(--fill-0, #111827)"/>
</g>
</svg>
