<svg id="Layer_1" data-name="Layer 1" xmlns="http://www.w3.org/2000/svg" viewBox="0 0 841.89 595.28"><path d="M580.84,246.2a34.6,34.6,0,0,0-4.91-.54q-2.71-.12-4.44-.12c-1.24,0-2.65,0-4.26.12a33.59,33.59,0,0,0-4.62.54v51.73q0,8.4-3.19,12.66t-10.52,4.27q-7.39,0-10.55-4.27t-3.16-12.66V257q0-6.08-2.74-8.82c-1.83-1.82-4.51-2.74-8.05-2.74h-6.67l-.78.84v51.49q0,10.08,3.76,17.13a25.13,25.13,0,0,0,10.88,10.76q7.11,3.71,17.25,3.7t17.34-3.7a25.09,25.09,0,0,0,10.91-10.76q3.75-7,3.75-17.13V246.2Zm7.39,80,.66.95a22.37,22.37,0,0,0,4.14.87,38.21,38.21,0,0,0,4.68.32c1.39,0,2.74,0,4-.11a20.79,20.79,0,0,0,3.64-.54l12.75-42.85c.6-2.07,1.26-4.39,2-7s1.43-5.18,2.09-7.8,1.18-5,1.57-7.16h.72q1.43,5.73,3.25,12.4T631,287l9.11,31.77c1.12,3.89,2.49,6.51,4.12,7.84a10.34,10.34,0,0,0,6.73,2,30.6,30.6,0,0,0,5.6-.56,16.35,16.35,0,0,0,4.89-1.64l-25.8-80.1a40,40,0,0,0-5.22-.6c-2.05-.12-3.8-.18-5.27-.18s-3.28.05-5.31.15a47.48,47.48,0,0,0-5.24.51l-26.41,80Zm44.35-16,2,0,2.39-.06,2,0h9.42l-4.59-14.25H635.2l-2,0-2.26-.06-2,0h-9.12l-2,0-2.27.06-1.91,0h-8.28l-5.6,14.25h9.47l2,0,2.35.06,2,0ZM672,327.61a32.09,32.09,0,0,0,4.59.54c1.63.07,3,.12,4.05.12s2.45,0,3.91-.12a33.15,33.15,0,0,0,4.38-.54V302q0-4.89-.18-11.11t-.51-12.46q-.33-6.23-.74-11.18l1.25-.35,4.59-20.74a57.88,57.88,0,0,0-5.84-.54q-2.93-.12-4.71-.12t-5.22.24a40.56,40.56,0,0,0-5.57.71v81.12Zm42.5,0,14.89-9.89-9.17-10-3.34-8.07q-2-4.74-4.23-9.93L693.31,246.2l-13.77,11.14,8.4,9.78q1.32,3.51,3.07,7.86t3.73,8.94l19.73,43.69Zm20.73-82.19h-5.84q-5.29,0-7.71,2.48t-2.42,8.55v16.69c0,2.74,0,6.1.15,10.1s.25,8.13.45,12.42.45,8.25.77,11.86l-1.31.42-4.82,19.67q3,.42,5.87.54c1.92.07,3.5.12,4.73.12s3-.09,5.31-.24a40.78,40.78,0,0,0,5.66-.72V246.26l-.84-.84Zm23.9,15.91c.88,0,2.12,0,3.73-.05s2.85-.06,3.72-.06h18.24c.88,0,2.12,0,3.73.06s2.85.05,3.72.05h4q5,0,7.28-1.84c1.54-1.23,2.32-3.34,2.32-6.32a29.36,29.36,0,0,0-.24-3.64,22.61,22.61,0,0,0-.65-3.33H746.59a31.36,31.36,0,0,0-.57,4c-.1,1.33-.15,2.53-.15,3.61s0,2.2.15,3.51a31.41,31.41,0,0,0,.57,4Zm7.45,66.28a37,37,0,0,0,4.77.54c1.63.07,3.08.12,4.35.12s2.67,0,4.32-.12a37.08,37.08,0,0,0,4.8-.54V270q0-2.44-.06-4.38c0-1.29-.06-2.78-.06-4.44v-7.51h-18v7.51c0,1.66,0,3.15-.06,4.44s-.06,2.77-.06,4.44v57.51Z"/><path d="M120.46,122.28,222.73,241.62l68.52-41.42S208.3,89.69,187.06,97.69s-66.6,24.59-66.6,24.59Z"/><path d="M292.74,200.33a259.3,259.3,0,0,0,22.81-62.83S393,168.07,363.92,245.58l-71.18-45.25Z"/><path d="M363.92,245.58l6.53,81.81L400.52,324s8.35-2.13,6.78-17.35S403,259.1,403,259.1s1.36-8.16-17.09-10.72c-21.93-3-22-2.8-22-2.8Z"/><path d="M370.45,327.39l-59.71,47.84,27.73,53s7,20.24,25.45-2.81,25.52-27.55,24.56-41.47-4.89-47-18-56.58Z"/><path d="M310.74,375.23l-81.55-35.9L157.25,482.78s-4.93,9.7,13.2,12.05,47.82,8.86,63.24-6.28,77.05-113.32,77.05-113.32Z"/><path d="M228.81,337.31l-7.7-95.37L45.57,253.65S35,255.46,36.08,274.21C37.6,300.35,40.14,328,40.14,328s-.81,12.12,22.26,13.42,163.61,1.55,166.41-4.06Z"/><path d="M504.43,286.71a65.35,65.35,0,0,0-2.12-17.18,38.17,38.17,0,0,0-6.43-13.41,28.92,28.92,0,0,0-10.93-8.7,37,37,0,0,0-15.67-3.06q-11.91,0-19.69,5.3A31.64,31.64,0,0,0,438,264.49a59.45,59.45,0,0,0-3.81,22.16,66,66,0,0,0,2.12,17.28,38.33,38.33,0,0,0,6.43,13.46,28.62,28.62,0,0,0,10.93,8.73,36.72,36.72,0,0,0,15.61,3.07c1.65,0,3.2-.13,4.72-.28-2.82-4.15-6.18-9.39-9.28-14.32a11,11,0,0,1-3.93-2,16.28,16.28,0,0,1-4.85-6.85,36.34,36.34,0,0,1-2.24-9.24,84.53,84.53,0,0,1,0-19.6,35.5,35.5,0,0,1,2.24-9.17,16.27,16.27,0,0,1,4.85-6.79,15.31,15.31,0,0,1,17,0,16.27,16.27,0,0,1,4.85,6.79,35.09,35.09,0,0,1,2.21,9.17,90.87,90.87,0,0,1,0,19.6l10.39,21.54a34.08,34.08,0,0,0,5.34-9.09,59.83,59.83,0,0,0,3.81-22.25Z"/><path d="M461,302.11l18.29-8.42,16.13,33.63s1.11,2.27-3,2.82-10.72,2.08-14.18-1.47S461,302.11,461,302.11Z"/></svg>