<svg fill="none" height="512" viewBox="0 0 2193 512" width="2193" xmlns="http://www.w3.org/2000/svg" xmlns:xlink="http://www.w3.org/1999/xlink"><clipPath id="a"><path d="m69.8181 69.8182h2053v372h-2053z"/></clipPath><g clip-path="url(#a)" fill="#2b2b2b"><path d="m489.611 322.088c.001 33.82 19.762 55.915 49.84 55.915 33.398 0 55.482-23.964 55.482-62.005v-127.324h46.068v224.597h-41.392s-3.077-18.628-4.344-24.778c-.061-.361-.121-.723-.815-1.386-.664-.603-1.539-.633-1.539-.633-.017 0-.641.002-1.146.24l.03-.029c-.362.18-.634.391-.875.722-16.352 20.498-37.772 30.535-65.075 30.535-50.322 0-82.302-34.303-82.302-89.284v-140.014h46.068zm1528.379-138.146c62.99 0 104.38 43.708 104.38 110.415h.03c0 5.184-.45 12.69-.93 19.744h-160.68c-3.14 0-5.49 2.803-4.95 5.878 6.36 36.503 30.71 58.96 67.79 58.96 30.11 0 47.97-14.59 55.03-35.72h42.33c-7 42.743-43.39 74.001-96.97 74.694-62.75.814-114.04-50.399-115.55-113.097-1.69-70.655 42.93-120.874 109.52-120.874zm-132.36 229.3h-38.07l-3.92-23.481c-.55-2.291-2.11-3.859-4.41-4.221-1.69-.271-3.41.513-4.58 1.778l-.18.211c-15.12 19.985-37.96 30.385-66.86 30.385-59.25 0-101.58-48.38-101.58-116.985 0-68.606 42.33-116.987 105.8-116.987 26.61 0 47.4 8.501 63.24 27.672.01.016 1.07 1.414 2.84.784 1.68-.633 1.65-2.381 1.65-2.381v-116.7445h46.07zm-1026.237-229.3c58.769 0 93.585 31.5 102.515 86.933h-43.262c-8.478-31.017-27.756-46.993-58.318-46.993-39.491 0-64.894 27.249-64.894 77.046 0 49.796 25.855 77.046 63.959 77.046 31.496 0 50.775-15.976 59.253-46.993h43.262c-9.413 56.397-47.034 86.932-103.45 86.932-64.894 0-109.093-46.993-109.093-116.985s45.134-116.985 110.028-116.986zm670.487 0c66.28 0 113.32 48.862 113.32 116.986 0 68.123-47.04 116.985-113.32 116.985s-113.32-48.862-113.32-116.985c0-68.124 47.01-116.985 113.32-116.986zm-494.63 92.149c0 1.778 2.6 3.044 4.2 1.446l91.71-88.891h50.32v4.702s-64.56 61.823-85.35 82.924c-.48.512-1.47 1.507-1.44 2.471 0 1.231 1.1 2.7 1.11 2.713l91.32 127.083v4.703h-51.25l-72.98-102.457-.33-.482c-.01-.012-.62-1.026-1.88-1.115-1.25-.09-1.98.741-1.99.753l-.78.753-17.05 16.73c-3.59 3.527-5.61 8.35-5.61 13.384v72.465h-46.066v-320.0005h46.066zm-314.389 137.149h-46.098v-224.596h46.098zm597.859-229.572c23.9 0 42.39 7.808 55.46 23.422h.06c13.03 15.614 19.58 36.201 19.58 61.793v144.265h-44.2v-130.761c0-20.226-3.35-35.478-10.02-45.757s-17.65-15.403-32.94-15.403c-16.11 0-28.91 5.365-38.35 16.036-9.47 10.67-14.18 25.712-14.18 45.124v130.761h-44.2v-224.416h40.43l.69 24.537.16 3.195c.09 2.381 3.16 3.225 4.46 1.236l2.62-4.039v.09c3.66-5.697 8.03-10.61 13.13-14.68 12.91-10.278 28.69-15.403 47.3-15.403zm456.86 40.245c-39.04 0-62.55 28.666-62.55 77.046s23.51 77.046 62.55 77.046c40.45 0 63.95-28.666 63.95-77.046s-24.92-77.046-63.95-77.046zm-245.7-.001c-40.46 0-66.31 30.083-66.31 77.046s25.85 77.046 66.31 77.046 66.31-30.083 66.31-77.046-25.85-77.046-66.31-77.046zm488.14-.934c-30.92 0-52.31 19.05-60.25 50.188-.81 3.135 1.57 6.18 4.8 6.18h109.75c3.2 0 5.7-2.834 5.22-5.999-4.55-30.445-28.6-50.369-59.52-50.369zm-1320.213-132.1801c14.879.0001 26.941 12.0521 26.941 26.9181s-12.062 26.918-26.941 26.918c-14.88 0-26.942-12.052-26.942-26.918s12.062-26.9181 26.942-26.9181z"/><path d="m257 94.0098c87.57.9263 158.272 72.2012 158.272 159.9902 0 40.813-15.282 78.056-40.435 106.321-2.605 2.929-1.974 7.564 1.421 9.524l68.015 39.268v4.887h-190.717c-.003 0-.005-.003-.005-.006s-.003-.005-.006-.005c-87.57-.926-158.2725-72.2-158.2725-159.989 0-40.813 15.2815-78.057 40.4345-106.322 2.606-2.929 1.975-7.564-1.42-9.524l-68.0136-39.2672v-4.8867h190.7166zm-1.728 45.9902c-62.96 0-114 51.04-114 114s51.04 114 114 114c62.961 0 114-51.039 114-114 0-62.96-51.039-114-114-114z"/></g></svg>