<svg width="324" height="109" viewBox="0 0 324 109" fill="none" xmlns="http://www.w3.org/2000/svg">
<path d="M22.1367 23.3389H46.813C54.4236 23.3389 60.5933 29.5085 60.5933 37.1191H22.1367V23.3389Z" fill="black"/>
<path d="M82.7284 37.127V57.6209C82.7284 67.5324 74.6935 75.5673 64.782 75.5673H60.5835V37.127H82.7284Z" fill="black"/>
<path d="M60.5918 89.3545H35.9155C28.3049 89.3545 22.1353 83.1849 22.1353 75.5742H60.5918V89.3545Z" fill="black"/>
<path d="M8.95818e-07 75.5663L0 55.0724C-4.33242e-07 45.1609 8.03487 37.126 17.9464 37.126H22.145V75.5663H8.95818e-07Z" fill="black"/>
<path d="M131.455 34.1752H142.762V77.9999H131.455V73.0915C128.709 77.1818 124.355 79.227 118.395 79.227C113.604 79.227 109.63 77.6201 106.475 74.4063C103.378 71.1925 101.829 66.7516 101.829 61.0836V34.1752H113.136V59.6812C113.136 62.6028 113.925 64.8525 115.503 66.4302C117.08 67.9494 119.184 68.7091 121.814 68.7091C124.735 68.7091 127.072 67.8034 128.825 65.9919C130.578 64.1805 131.455 61.4634 131.455 57.8406V34.1752ZM178.185 45.0438H168.281V63.2748C168.281 64.7941 168.66 65.9043 169.42 66.6055C170.18 67.3067 171.29 67.7157 172.751 67.8326C174.212 67.891 176.023 67.8618 178.185 67.7449V77.9999C170.413 78.8764 164.921 78.146 161.707 75.8087C158.552 73.4714 156.974 69.2934 156.974 63.2748V45.0438H149.348V34.1752H156.974V25.3227L168.281 21.9043V34.1752H178.185V45.0438ZM194.341 60.733C195.861 66.2257 199.98 68.972 206.7 68.972C211.024 68.972 214.296 67.5112 216.517 64.5896L225.632 69.8485C221.308 76.1008 214.939 79.227 206.525 79.227C199.279 79.227 193.465 77.0358 189.082 72.6533C184.7 68.2708 182.509 62.7489 182.509 56.0876C182.509 49.4847 184.671 43.992 188.995 39.6095C193.319 35.1686 198.87 32.9482 205.648 32.9482C212.076 32.9482 217.364 35.1686 221.513 39.6095C225.72 44.0504 227.823 49.5431 227.823 56.0876C227.823 57.5484 227.677 59.0969 227.385 60.733H194.341ZM194.166 51.9681H216.517C215.874 48.988 214.53 46.7675 212.485 45.3067C210.498 43.8459 208.219 43.1155 205.648 43.1155C202.61 43.1155 200.097 43.9043 198.11 45.482C196.123 47.0013 194.809 49.1633 194.166 51.9681ZM273.641 77.9999H260.581L251.115 64.6772L241.561 77.9999H228.501L244.541 55.6493L229.202 34.1752H242.262L251.115 46.5338L259.967 34.1752H272.939L257.601 55.5617L273.641 77.9999ZM313.542 72.5656C309.042 77.0065 303.55 79.227 297.064 79.227C290.578 79.227 285.085 77.0065 280.585 72.5656C276.145 68.0663 273.924 62.5736 273.924 56.0876C273.924 49.6015 276.145 44.138 280.585 39.6971C285.085 35.1978 290.578 32.9482 297.064 32.9482C303.55 32.9482 309.042 35.1978 313.542 39.6971C318.041 44.138 320.291 49.6015 320.291 56.0876C320.291 62.5736 318.041 68.0663 313.542 72.5656ZM288.562 64.7649C290.84 67.0437 293.674 68.1832 297.064 68.1832C300.453 68.1832 303.287 67.0437 305.566 64.7649C307.844 62.486 308.984 59.5935 308.984 56.0876C308.984 52.5816 307.844 49.6892 305.566 47.4103C303.287 45.1314 300.453 43.992 297.064 43.992C293.674 43.992 290.84 45.1314 288.562 47.4103C286.341 49.6892 285.231 52.5816 285.231 56.0876C285.231 59.5935 286.341 62.486 288.562 64.7649Z" fill="black"/>
</svg>
